<svg height="769" viewBox="0 0 771 769" width="771" xmlns="http://www.w3.org/2000/svg"><g fill="none" fill-rule="evenodd"><path d="m361.948 586.602c-119.035-14.616-204.085-119.952-189.93-235.232 6.215-51.351 31.915-98.581 72.038-132.46l1.201-1.062c46.144-38.583 107.22-56.32 167.957-48.776 119.036 14.614 204.086 119.952 189.93 235.232-14.154 115.281-122.16 196.914-241.195 182.298z" opacity=".42" stroke="#ff1515" stroke-width="3"/><g fill-rule="nonzero"><path d="m412.238 182.262c111.552 13.784 191.17 112.491 177.815 220.524-9.726 78.49-66.963 143.453-145.354 164.854-107.981 29.09-220.552-32.352-251.487-137.267-30.722-104.457 31.132-212.844 138.55-242.435 26.123-7.077 53.497-9.074 80.476-5.676m1.756-14.303c-119.65-14.69-228.237 67.303-242.475 183.265-14.228 115.876 71.287 221.789 190.937 236.48s228.248-67.387 242.476-183.264c14.238-115.962-71.288-221.79-190.938-236.48z" fill="#ff1515" opacity=".42"/><path d="m393.825 185.341c111.551 13.785 191.081 112.48 177.815 220.524-9.726 78.49-66.963 143.453-145.354 164.854-107.981 29.09-220.542-32.437-251.388-137.341-30.723-104.457 31.11-212.674 138.45-242.36 26.124-7.077 53.498-9.075 80.477-5.677m1.756-14.302c-119.65-14.691-228.237 67.302-242.476 183.264-14.227 115.877 71.288 221.79 190.938 236.48 119.65 14.692 228.247-67.387 242.475-183.264 14.239-115.962-71.287-221.79-190.937-236.48z" fill="#020293" opacity=".23"/><path d="m424.483 189.233c111.552 13.784 191.17 112.49 177.816 220.524-9.727 78.489-66.963 143.453-145.355 164.854-107.991 29.175-220.563-32.267-251.497-137.182-30.8-104.553 31.142-212.93 138.56-242.52 26.123-7.077 53.497-9.074 80.476-5.676m1.756-14.303c-119.65-14.691-228.237 67.302-242.475 183.264-14.228 115.877 71.287 221.79 190.937 236.48 119.65 14.692 228.248-67.386 242.476-183.263 14.238-115.962-71.287-221.79-190.938-236.48z" fill="#4a00ff" opacity=".33"/><path d="m417.45 198.804c111.55 13.784 191.08 112.48 177.815 220.524-9.727 78.49-66.963 143.453-145.354 164.854-107.982 29.09-220.553-32.352-251.487-137.267-30.724-104.457 31.131-212.845 138.55-242.435 26.123-7.077 53.496-9.074 80.476-5.676m1.756-14.303c-119.65-14.69-228.237 67.303-242.476 183.265-14.228 115.876 71.287 221.789 190.938 236.48 119.65 14.691 228.247-67.387 242.475-183.264 14.238-115.962-71.287-221.79-190.937-236.48z" fill="#020293"/><g fill="#000"><path d="m345.549 372.72c-1.768-.942-3.271-2.14-4.597-3.51l4.862-3.68c.707 1.198 1.591 2.14 2.652 2.738 1.061.685 2.21.942 3.536.942 1.415 0 2.476-.342 3.183-1.113.707-.77 1.061-1.626 1.061-2.568 0-.599-.177-1.027-.53-1.455a3.895 3.895 0 0 0 -1.327-1.027c-.53-.257-1.149-.514-1.856-.77-.707-.257-1.415-.429-2.21-.685-.973-.343-1.945-.6-2.918-.942a10.24 10.24 0 0 1 -2.563-1.37c-.708-.513-1.415-1.284-1.857-2.14s-.707-1.968-.707-3.252c0-1.113.265-2.14.707-3.082.442-.941 1.15-1.797 1.945-2.482.796-.685 1.856-1.284 3.006-1.712s2.387-.6 3.713-.6c1.15 0 2.21.086 3.094.343.884.171 1.768.514 2.564.856.795.342 1.503.77 2.122 1.284.618.514 1.237 1.027 1.768 1.626l-4.332 3.167c-1.238-1.711-2.918-2.653-5.128-2.653-1.326 0-2.298.342-2.917.942-.619.599-.973 1.37-.973 2.225 0 .514.177 1.027.442 1.37.266.342.708.684 1.238 1.027.53.257 1.15.513 1.857.77l2.21.685 2.917 1.027c.973.428 1.857.856 2.652 1.541.796.685 1.415 1.37 1.945 2.226s.708 1.968.708 3.338c0 1.113-.177 2.14-.708 3.167-.442 1.027-1.06 1.969-1.945 2.74-.884.77-1.856 1.455-3.094 1.882-1.238.514-2.652.77-4.155.77-2.475-.256-4.597-.684-6.365-1.625zm32.445-26.45 10.078 27.477h-5.481l-1.768-4.88h-11.05l-1.769 4.88h-5.481l10.078-27.478h5.393zm1.06 17.718-3.712-10.443-3.713 10.443h7.426zm27.318-17.718v4.879h-10.785v6.334h10.785v4.879h-10.785v11.385h-5.305v-27.478zm19.892 0v4.879h-11.581v6.334h11.58v4.879h-11.58v6.506h11.58v4.879h-16.796v-27.478z"/><path d="m429.093 348.837v-2.824h11.935v2.824h-4.42v13.183h-3.095v-13.183zm16.532-2.824 5.039 6.762 5.216-6.762h2.917v16.007h-3.094v-11.214l-5.128 6.677-4.95-6.506v11.128h-3.094v-16.007h3.094z"/><path d="m313.723 393.349v4.88h-11.583v6.333h11.582v4.88h-11.582v6.505h11.582v4.88h-16.798v-27.478zm9.194 27.049a12.142 12.142 0 0 1 -3.713-2.482c-1.061-1.027-1.857-2.226-2.476-3.595-.618-1.37-.884-2.91-.884-4.451 0-1.627.266-3.082.884-4.537.62-1.455 1.415-2.568 2.476-3.681a12.142 12.142 0 0 1 3.713-2.482c1.414-.6 3.006-.856 4.685-.856 1.238 0 2.476.17 3.625.513 1.15.343 2.122.856 3.094 1.37.973.513 1.768 1.284 2.476 2.14a10.964 10.964 0 0 1 1.68 2.739l-4.686 1.883c-.53-1.198-1.326-2.14-2.387-2.91s-2.299-1.027-3.713-1.027c-.973 0-1.857.17-2.652.513-.796.343-1.503.856-2.122 1.455-.62.6-1.061 1.284-1.415 2.14a6.782 6.782 0 0 0 -.53 2.654c0 .942.177 1.798.53 2.568.354.77.796 1.54 1.415 2.14s1.326 1.113 2.122 1.455c.795.342 1.768.514 2.652.514 1.503 0 2.74-.428 3.801-1.113 1.061-.77 1.857-1.712 2.387-2.996l4.686 1.969c-.442 1.027-.973 1.968-1.68 2.824s-1.503 1.627-2.475 2.226c-.973.6-1.945 1.113-3.095 1.455-1.149.343-2.387.514-3.713.514-1.68-.086-3.182-.343-4.685-.942zm23.869 0c-1.414-.599-2.652-1.37-3.713-2.482-1.06-1.027-1.856-2.226-2.475-3.68-.619-1.37-.884-2.911-.884-4.452 0-1.626.265-3.082.884-4.537s1.415-2.568 2.475-3.68a12.142 12.142 0 0 1 3.713-2.483c1.415-.6 3.006-.856 4.598-.856 1.68 0 3.182.257 4.597.856 1.414.6 2.652 1.37 3.713 2.482 1.06 1.028 1.945 2.226 2.564 3.681.618 1.37.884 2.91.884 4.537 0 1.626-.266 3.082-.884 4.451-.62 1.37-1.415 2.568-2.564 3.68a12.142 12.142 0 0 1 -3.713 2.483c-1.415.6-2.918.856-4.597.856-1.68 0-3.183-.257-4.598-.856zm7.161-4.45c.796-.343 1.503-.857 2.122-1.456.619-.6 1.061-1.284 1.415-2.14a6.68 6.68 0 0 0 0-5.222c-.354-.856-.796-1.54-1.415-2.14-.619-.599-1.326-1.112-2.122-1.455-.795-.342-1.68-.513-2.652-.513s-1.768.17-2.652.513-1.503.856-2.122 1.455c-.619.6-1.06 1.284-1.414 2.14a6.782 6.782 0 0 0 -.53 2.654c0 .942.176 1.798.53 2.568.353.77.795 1.54 1.414 2.14.62.6 1.326 1.113 2.122 1.455s1.68.514 2.652.514c.973 0 1.857-.172 2.652-.514zm13.792 3.937c-1.68-.942-2.918-2.226-3.89-3.938l4.862-2.225c.53 1.027 1.326 1.797 2.21 2.396.973.514 2.034.856 3.271.856 1.327 0 2.299-.257 2.918-.77.619-.514.972-1.198.972-1.883 0-.428-.176-.77-.442-.942a34.737 34.737 0 0 0 -1.149-.685c-.442-.256-1.06-.342-1.68-.428-.619-.085-1.326-.256-2.033-.428-.973-.17-1.945-.428-2.917-.684-.973-.257-1.769-.685-2.564-1.113-.796-.428-1.326-1.113-1.857-1.883-.53-.77-.707-1.712-.707-2.91 0-.857.177-1.713.619-2.569s1.06-1.54 1.768-2.14c.707-.599 1.68-1.113 2.829-1.455 1.15-.342 2.299-.514 3.713-.514 2.299 0 4.155.428 5.746 1.199 1.503.856 2.741 1.883 3.625 3.338l-4.509 2.14c-.442-.77-1.149-1.37-1.945-1.883-.795-.514-1.768-.685-2.917-.685-1.238 0-2.21.257-2.74.685-.531.428-.885 1.027-.885 1.626 0 .77.442 1.284 1.326 1.541.885.257 2.21.685 3.89 1.027.973.172 1.857.428 2.83.685.972.257 1.767.685 2.563 1.199.796.513 1.415 1.112 1.857 1.883.442.77.707 1.712.707 2.91a5.88 5.88 0 0 1 -.53 2.397c-.354.77-.885 1.626-1.68 2.311a9.585 9.585 0 0 1 -2.918 1.712c-1.149.428-2.563.685-4.243.685-2.299-.086-4.42-.514-6.1-1.455zm15.382-21.058h5.57l6.365 14.809 6.012-14.809h5.481l-13.614 32.186h-5.305l4.774-11.3zm26.699 21.058c-1.68-.942-2.917-2.226-3.89-3.938l4.863-2.225c.53 1.027 1.326 1.797 2.21 2.396.972.514 2.033.856 3.27.856 1.327 0 2.3-.257 2.918-.77.62-.514.973-1.198.973-1.883 0-.428-.177-.77-.442-.942a34.736 34.736 0 0 0 -1.15-.685c-.442-.256-1.06-.342-1.68-.428-.618-.085-1.325-.256-2.033-.428-.972-.17-1.945-.428-2.917-.684-.973-.257-1.768-.685-2.564-1.113s-1.326-1.113-1.856-1.883-.708-1.712-.708-2.91c0-.857.177-1.713.62-2.569.441-.856 1.06-1.54 1.767-2.14.796-.599 1.68-1.113 2.83-1.455 1.149-.342 2.298-.514 3.712-.514 2.299 0 4.155.428 5.747 1.199 1.503.856 2.74 1.883 3.624 3.338l-4.508 2.14c-.442-.77-1.15-1.37-1.945-1.883-.796-.514-1.768-.685-2.918-.685-1.237 0-2.21.257-2.74.685s-.884 1.027-.884 1.626c0 .77.442 1.284 1.326 1.541s2.21.685 3.89 1.027c.972.172 1.856.428 2.829.685.972.257 1.768.685 2.563 1.199.796.513 1.415 1.112 1.857 1.883.442.77.707 1.712.707 2.91a5.88 5.88 0 0 1 -.53 2.397c-.354.77-.884 1.626-1.68 2.311a9.585 9.585 0 0 1 -2.917 1.712c-1.15.428-2.564.685-4.244.685-2.387-.086-4.42-.514-6.1-1.455zm20.51-21.058v-3.338l5.305-3.51v6.848h4.597v4.537h-4.597v8.218c0 .941.088 1.712.177 2.31.088.6.353 1.028.618 1.37.354.343.796.514 1.415.6.619.085 1.414.17 2.475.17v4.794h-.707c-1.768 0-3.27-.17-4.42-.428a5.99 5.99 0 0 1 -2.83-1.54c-.706-.685-1.237-1.627-1.502-2.825-.265-1.199-.442-2.654-.442-4.366v-8.303h-3.89v-4.537zm18.035 21.571c-1.503-.599-2.74-1.37-3.801-2.397s-1.857-2.225-2.476-3.595c-.618-1.37-.884-2.91-.884-4.45 0-1.627.266-3.082.884-4.538.62-1.37 1.415-2.653 2.476-3.68a12.142 12.142 0 0 1 3.713-2.483c1.414-.599 3.006-.941 4.685-.941 1.68 0 3.271.256 4.686.856 1.414.599 2.652 1.37 3.713 2.396 1.06 1.028 1.857 2.226 2.475 3.596.62 1.37.884 2.91.884 4.536v1.884h-18.565c.354 1.54 1.15 2.824 2.387 3.766 1.238.941 2.74 1.455 4.597 1.455 1.503 0 2.74-.342 3.89-1.027 1.061-.685 1.945-1.626 2.476-2.825l4.331 2.397a10.917 10.917 0 0 1 -4.155 4.28c-1.768 1.027-3.978 1.626-6.453 1.626-1.768 0-3.36-.257-4.863-.856zm.62-16.35c-1.15.857-1.946 1.884-2.476 3.254h12.907c-.354-1.456-1.15-2.568-2.21-3.339-1.06-.77-2.475-1.113-4.155-1.113-1.503 0-2.918.343-4.067 1.199zm23.338-5.221v2.568c.708-.941 1.68-1.626 2.741-2.225a8.74 8.74 0 0 1 3.713-.856c1.768 0 3.271.342 4.509 1.027 1.237.685 2.21 1.626 2.829 2.825.795-1.199 1.768-2.055 3.094-2.74 1.326-.684 2.74-1.027 4.42-1.027 3.095 0 5.393.856 6.896 2.483 1.503 1.626 2.299 3.852 2.299 6.762v13.268h-5.216v-12.84c0-1.626-.442-2.91-1.238-3.852s-2.033-1.37-3.713-1.37c-1.415 0-2.652.514-3.536 1.456-.973.941-1.415 2.396-1.415 4.365v12.326h-5.304v-13.01c0-1.627-.442-2.825-1.238-3.767s-2.033-1.37-3.536-1.37-2.74.514-3.713 1.456c-.973.941-1.503 2.482-1.503 4.365v12.24h-5.216v-21.998z"/></g></g><path d="m589.028 207.811c63.626 71.753 85.221 168.93 61.057 256.154m-513.337 24.898c16.974 37.646 42.561 72.33 76.61 100.788 37.86 31.77 81.465 52.009 126.317 60.978m-223.668-229.784c-12.59-74.84 5.827-153.56 57.492-215.131a265.503 265.503 0 0 1 30.958-31.245m202.976 481.394c72.072-3.352 141.767-35.014 191.006-93.694 9.318-11.106 17.534-22.688 24.647-34.748m-359.486-390.779c84.93-39.482 188.677-32.492 271.516 23.804" stroke="#999"/><path d="m567.407 187.551a6.38 6.38 0 0 1 -1.939-1.154 4.51 4.51 0 0 1 -1.234-1.77c-.264-.691-.44-1.384-.44-2.153 0-.77.176-1.538.44-2.23.265-.693.793-1.231 1.322-1.693s1.234-.846 2.027-1.154a8.183 8.183 0 0 1 2.468-.384c.617 0 1.146.076 1.675.153.529.154 1.057.308 1.498.539.44.23.881.538 1.234.846s.705.692.97 1.077l-2.028 1.077c-.352-.539-.793-1-1.322-1.308s-1.234-.461-2.027-.461c-.617 0-1.146.077-1.586.307-.53.154-.882.462-1.234.77-.353.307-.617.692-.882 1.076a3.857 3.857 0 0 0 -.264 1.385c0 .462.088.923.264 1.385.177.461.441.769.794 1.077.352.307.793.538 1.234.769.44.23 1.057.308 1.586.308.881 0 1.586-.154 2.115-.539.53-.385 1.058-.846 1.322-1.461l2.116.923c-.265.461-.617.846-.97 1.23a3.857 3.857 0 0 1 -1.322.923c-.529.231-.97.462-1.586.616a6.934 6.934 0 0 1 -1.763.23c-.793.078-1.675-.076-2.468-.384zm11.282-10.538v10.846h-2.292v-10.846zm4.054 10.615a5.104 5.104 0 0 1 -1.587-.923 4.378 4.378 0 0 1 -1.057-1.385c-.265-.538-.44-1.077-.44-1.692s.175-1.23.44-1.77c.264-.538.617-1 1.057-1.384.441-.385.97-.692 1.587-.923.617-.23 1.322-.308 1.939-.308s1.322.077 1.939.308c.617.23 1.146.538 1.586.923.441.385.794.846 1.058 1.385.264.538.44 1.154.44 1.769a3.51 3.51 0 0 1 -.44 1.692c-.264.462-.617 1-1.058 1.385-.44.384-.97.692-1.586.923-.617.23-1.234.308-1.94.308-.704 0-1.321-.077-1.938-.308zm3.085-1.692c.352-.154.617-.308.881-.539.264-.23.44-.538.617-.846.176-.308.176-.615.176-1s-.088-.692-.176-1-.353-.615-.617-.846a3.205 3.205 0 0 0 -.881-.539 2.735 2.735 0 0 0 -1.146-.23c-.44 0-.793.077-1.146.23a3.205 3.205 0 0 0 -.881.539c-.265.23-.441.538-.617.846-.177.308-.177.692-.177 1 0 .385.089.692.177 1s.352.615.617.846c.264.23.529.385.881.539.353.153.705.23 1.146.23.44 0 .793-.077 1.146-.23zm11.546 1.923v-1c-.353.384-.706.615-1.146.846-.441.23-1.058.308-1.675.308-1.146 0-2.115-.308-2.732-.924-.705-.615-1.058-1.538-1.058-2.692v-5.077h2.292v4.846c0 .693.176 1.154.529 1.539.352.384.881.615 1.586.615.617 0 1.146-.23 1.587-.615.44-.385.617-1 .617-1.692v-4.693h2.291v8.539zm6.257-.154a6.114 6.114 0 0 1 -1.586-.846c-.53-.385-.793-.846-1.058-1.385a4.15 4.15 0 0 1 -.44-1.846c0-.692.176-1.385.44-1.923.265-.539.617-1 1.058-1.385.44-.384.97-.692 1.586-.846.617-.154 1.146-.308 1.763-.308s1.234.077 1.763.308c.528.23.97.462 1.322.846v-3.307h2.291v10.846h-2.291v-1.077c-.353.384-.794.692-1.41.923-.53.23-1.146.308-1.763.308-.44 0-1.058-.077-1.675-.308zm3.35-1.692c.352-.154.704-.308.88-.539.177-.23.441-.538.618-.846.176-.308.264-.692.264-1.077s-.088-.692-.264-1c-.177-.308-.353-.615-.617-.846-.265-.23-.53-.462-.882-.539a2.735 2.735 0 0 0 -1.145-.23c-.441 0-.794.077-1.146.23-.353.154-.705.308-.97.539-.264.23-.44.538-.617.846a2.197 2.197 0 0 0 -.264 1.077c0 .385.088.692.264 1.077.177.308.353.615.617.846.265.23.617.462.97.538.352.154.705.231 1.146.231.352-.154.793-.23 1.145-.307z" fill="#000" fill-rule="nonzero"/><path d="m625.115 487.013c1.057 0 1.939.157 2.732.392.794.236 1.499.629 2.028 1.179s.97 1.021 1.234 1.729c.264.707.44 1.414.44 2.2 0 .785-.176 1.492-.44 2.2-.265.707-.705 1.257-1.323 1.728-.617.472-1.234.864-2.027 1.179-.793.235-1.587.393-2.556.393h-3.438v-10.923h3.35v-.078zm-1.058 8.957h.881c.705 0 1.234-.079 1.763-.236.53-.157.97-.393 1.322-.786.353-.314.706-.707.882-1.1s.264-.943.264-1.414c0-.55-.088-1.021-.264-1.414a3.279 3.279 0 0 0 -.793-1.1c-.353-.315-.794-.55-1.41-.707-.53-.158-1.235-.236-1.94-.236h-.793zm10.843-8.957 3.701 4.557 3.88-4.557h2.203v10.921h-2.292v-7.621l-3.702 4.478-3.703-4.4v7.543h-2.292v-10.921zm18.863 0-5.818 10.921h-2.38l5.818-10.921zm8.11 0v1.964h-4.936v2.514h4.936v1.964h-4.936v2.593h4.936v1.965h-7.228v-10.923h7.228zm4.584 0c1.058 0 1.94.157 2.732.392.794.236 1.499.629 2.028 1.179s.97 1.021 1.234 1.729c.264.707.44 1.414.44 2.2 0 .785-.176 1.492-.44 2.2-.264.707-.705 1.257-1.322 1.728-.617.472-1.234.864-2.028 1.179-.793.314-1.675.393-2.556.393h-3.438v-10.923h3.35v-.078zm-1.058 8.957h.882c.705 0 1.234-.079 1.763-.236.528-.157.97-.393 1.322-.786.352-.314.705-.707.881-1.1.177-.393.265-.943.265-1.414 0-.55-.088-1.021-.265-1.414a3.279 3.279 0 0 0 -.793-1.1c-.353-.315-.793-.55-1.41-.707-.53-.158-1.235-.236-1.94-.236h-.793zm14.016-8.957 4.32 10.921h-2.38l-.706-1.964h-4.76l-.705 1.964h-2.38l4.319-10.921zm.44 6.992-1.586-4.164-1.587 4.164h3.174z" fill="#000" fill-rule="nonzero"/><g fill="#000" fill-rule="nonzero"><path d="m14.447 440.37 2.91 8.398 2.909-8.398h2.38l-4.144 11.792h-2.292l-4.144-11.792zm9.081-.933a1.489 1.489 0 0 1 1.058-.424c.44 0 .794.084 1.058.424.265.254.353.594.353 1.018s-.088.763-.353 1.018c-.264.254-.617.339-1.058.339-.44 0-.793-.085-1.058-.34-.264-.254-.353-.593-.353-1.017s.089-.764.353-1.018zm2.204 3.308v9.417h-2.292v-9.417zm3.527 0v1.358c.44-.934 1.323-1.358 2.469-1.358.352 0 .705 0 .97.085l.793.255-.882 2.036-.529-.255c-.176-.085-.44-.085-.793-.085-.705 0-1.146.17-1.499.51-.353.339-.529.932-.529 1.78v5.006h-2.204v-9.417h2.204zm6.348 0v-1.442l2.293-1.527v2.97h2.027v1.95h-2.027v3.563c0 .425 0 .764.088 1.018.088.255.176.425.264.594.088.17.353.255.617.255.265 0 .618.085 1.058.085v2.035h-.352c-.794 0-1.411-.084-1.94-.17-.529-.169-.882-.339-1.234-.678-.265-.34-.53-.679-.618-1.187-.176-.51-.176-1.103-.176-1.867v-3.563h-1.675v-1.951zm11.903 9.417v-1.103c-.265.424-.705.678-1.146.933-.441.254-1.058.34-1.675.34-1.147 0-2.117-.34-2.734-1.019-.705-.678-1.058-1.696-1.058-2.969v-5.599h2.293v5.345c0 .763.176 1.272.529 1.696.352.425.881.679 1.587.679.617 0 1.146-.254 1.587-.679.44-.424.617-1.102.617-1.866v-5.175h2.292v9.417zm6.348-.17a5.953 5.953 0 0 1 -1.587-.933 4.806 4.806 0 0 1 -1.058-1.527 4.96 4.96 0 0 1 -.44-2.036c0-.764.176-1.527.44-2.121a4.806 4.806 0 0 1 1.058-1.527c.44-.424.97-.763 1.587-.933a4.346 4.346 0 0 1 1.763-.34c.618 0 1.235.085 1.764.34.529.254.97.594 1.322.933v-1.103h2.293v9.417h-2.204v-1.273a3.497 3.497 0 0 1 -1.411 1.018 4.23 4.23 0 0 1 -1.852.424c-.529 0-1.146-.085-1.675-.339zm3.262-1.866c.353-.17.706-.34.882-.594.176-.255.44-.594.617-.933a2.53 2.53 0 0 0 .265-1.103c0-.424-.088-.764-.265-1.103-.176-.34-.352-.679-.617-.933a3.17 3.17 0 0 0 -.882-.594 2.52 2.52 0 0 0 -1.146-.254c-.44 0-.793.084-1.146.254s-.705.34-.97.594c-.264.254-.44.594-.617.933a2.53 2.53 0 0 0 -.265 1.103c0 .34.089.763.265 1.188.176.339.353.678.617.933.265.254.617.424.97.594s.705.254 1.146.254c.441-.17.794-.17 1.146-.34zm7.495-9.926v11.962h-2.293v-11.962zm8.817.17c1.058 0 1.94.17 2.733.424.793.34 1.499.679 2.028 1.273.529.593.97 1.187 1.234 1.866a6.73 6.73 0 0 1 .44 2.375c0 .849-.175 1.612-.44 2.376-.264.763-.793 1.357-1.323 1.866-.529.509-1.234.933-2.027 1.272-.794.255-1.676.424-2.557.424h-3.44v-11.791l3.35-.085zm-1.058 9.756h.881c.706 0 1.235-.085 1.852-.255.529-.17.97-.424 1.41-.848.353-.34.706-.764.882-1.188s.353-1.018.353-1.527c0-.594-.088-1.103-.265-1.527a3.546 3.546 0 0 0 -.793-1.187c-.353-.34-.794-.594-1.41-.764a7.129 7.129 0 0 0 -1.94-.254h-.794zm11.286 1.866c-.618-.255-1.147-.594-1.676-1.018a4.806 4.806 0 0 1 -1.058-1.527c-.265-.594-.353-1.272-.353-1.866 0-.679.088-1.358.353-1.951a4.806 4.806 0 0 1 1.058-1.527 5.02 5.02 0 0 1 1.587-1.018 5.405 5.405 0 0 1 2.028-.425c.705 0 1.41.085 2.028.34a5.02 5.02 0 0 1 1.587 1.018c.44.424.793.933 1.058 1.527.264.594.352 1.272.352 1.95v.85h-7.934c.177.678.53 1.187 1.058 1.611.53.424 1.235.594 2.028.594.617 0 1.235-.17 1.675-.424.441-.255.794-.679 1.058-1.188l1.852 1.018c-.44.763-1.058 1.357-1.763 1.866-.706.51-1.676.679-2.822.679-.793-.17-1.499-.255-2.116-.509zm.175-7.041c-.529.34-.881.848-1.058 1.442h5.555c-.176-.679-.529-1.103-.97-1.442-.44-.34-1.058-.51-1.763-.51a3.27 3.27 0 0 0 -1.764.51zm8.817 6.786a4.52 4.52 0 0 1 -1.675-1.696l2.116-.933c.265.424.53.763.97 1.018.44.254.882.339 1.41.339.53 0 .97-.085 1.235-.34.265-.254.44-.508.44-.848 0-.17-.087-.339-.175-.424-.089-.085-.265-.17-.53-.254-.264-.085-.44-.17-.705-.17-.264-.085-.529-.085-.881-.17a6.692 6.692 0 0 1 -1.235-.339c-.44-.085-.793-.254-1.058-.509-.264-.254-.617-.509-.793-.848-.177-.34-.265-.764-.265-1.273 0-.34.088-.763.265-1.103.176-.339.44-.678.793-.933.353-.254.706-.509 1.235-.678.44-.17.97-.255 1.587-.255.97 0 1.763.17 2.468.509.706.34 1.146.848 1.587 1.442l-1.94.933a1.699 1.699 0 0 0 -.793-.763c-.353-.17-.793-.255-1.234-.255-.53 0-.97.085-1.235.34-.264.17-.352.424-.352.678 0 .34.176.51.529.679.352.17.97.255 1.675.424.44.085.793.17 1.234.255.441.17.794.254 1.146.509.353.17.618.509.794.848.176.34.353.764.353 1.273 0 .339-.088.678-.265 1.018-.176.339-.353.678-.705 1.017-.353.34-.794.594-1.235.764-.529.17-1.058.254-1.851.254-1.234.085-2.204-.084-2.91-.509zm7.848-12.3a1.489 1.489 0 0 1 1.057-.424c.441 0 .794.084 1.058.424.265.254.353.594.353 1.018s-.088.763-.353 1.018c-.264.254-.617.339-1.058.339-.44 0-.793-.085-1.058-.34-.264-.254-.352-.593-.352-1.017s.088-.764.352-1.018zm2.115 3.308v9.417h-2.292v-9.417zm7.671 9.162a4.23 4.23 0 0 1 -1.851.424 4.346 4.346 0 0 1 -1.764-.339c-.529-.255-1.058-.509-1.587-.933a4.806 4.806 0 0 1 -1.058-1.527 4.96 4.96 0 0 1 -.44-2.036c0-.764.176-1.527.44-2.121a4.806 4.806 0 0 1 1.058-1.527c.441-.424.97-.763 1.587-.933a4.638 4.638 0 0 1 1.764-.34c.617 0 1.234.085 1.763.425.529.254.97.594 1.322 1.018v-1.188h2.293v9.162c0 .679-.088 1.272-.353 1.866-.264.594-.529 1.103-.97 1.527a5.02 5.02 0 0 1 -1.587 1.018 5.63 5.63 0 0 1 -2.204.424c-.617 0-1.234-.084-1.763-.17-.53-.084-.97-.339-1.411-.593-.44-.255-.794-.509-1.058-.848-.353-.34-.617-.679-.794-1.103l2.028-1.188c.353.679.794 1.103 1.235 1.442.44.34 1.058.424 1.851.424.441 0 .794-.084 1.146-.254.353-.17.618-.34.882-.594.265-.254.441-.509.53-.848.087-.34.175-.679.175-1.018v-1.188c-.264.424-.705.764-1.234 1.018zm-.264-1.781c.352-.17.705-.34.881-.594.177-.255.441-.594.617-.933a2.53 2.53 0 0 0 .265-1.103c0-.424-.088-.764-.265-1.103-.176-.34-.352-.679-.617-.933a3.17 3.17 0 0 0 -.881-.594 2.804 2.804 0 0 0 -1.147-.254c-.44 0-.793.084-1.146.254-.352.17-.705.34-.97.594-.264.254-.44.594-.617.933a2.53 2.53 0 0 0 -.264 1.103c0 .34.088.763.264 1.188.177.339.353.678.617.933.265.254.618.424.97.594.353.17.794.254 1.146.254.353-.17.794-.17 1.147-.34zm7.494-7.381v1.188c.353-.424.705-.764 1.234-1.018.53-.255 1.058-.34 1.676-.34 1.234 0 2.204.34 2.82 1.019.618.678 1.059 1.696 1.059 2.969v5.599h-2.292v-5.345c0-.763-.177-1.272-.53-1.696-.352-.425-.881-.68-1.675-.68-.617 0-1.234.255-1.675.68-.44.424-.705 1.102-.705 1.866v5.175h-2.293v-9.417h2.38z"/><path d="m66.907 459.881c.617 0 1.234.085 1.763.34.53.254.97.509 1.411.848.441.34.705.848.882 1.357.176.51.353 1.018.353 1.612s-.089 1.103-.353 1.612a7.29 7.29 0 0 1 -.882 1.357c-.353.425-.882.68-1.41.849-.53.254-1.147.34-1.764.34h-1.94v3.392h-2.292v-11.791h4.232zm-1.94 6.363h1.764c.352 0 .617-.085.881-.17.265-.085.53-.254.706-.424s.352-.424.44-.679c.089-.254.177-.509.177-.848 0-.34-.088-.594-.176-.848a1.839 1.839 0 0 0 -.441-.679c-.177-.17-.441-.34-.706-.424-.264-.085-.617-.17-.881-.17h-1.764zm9.787 5.26c-.529-.255-1.058-.51-1.587-.934a4.806 4.806 0 0 1 -1.058-1.527 4.96 4.96 0 0 1 -.44-2.036c0-.763.176-1.527.44-2.12a4.806 4.806 0 0 1 1.058-1.527c.44-.425.97-.764 1.587-.934a4.638 4.638 0 0 1 1.763-.339c.618 0 1.235.085 1.764.34.529.254.97.593 1.322.933v-1.103h2.293v9.416h-2.293v-1.272a3.497 3.497 0 0 1 -1.41 1.018 4.23 4.23 0 0 1 -1.852.424 4.48 4.48 0 0 1 -1.587-.34zm3.35-1.867c.353-.17.706-.34.882-.594.177-.254.441-.593.617-.933a2.53 2.53 0 0 0 .265-1.103c0-.424-.088-.763-.265-1.102-.176-.34-.352-.68-.617-.934a3.17 3.17 0 0 0 -.882-.593 2.804 2.804 0 0 0 -1.146-.255c-.44 0-.793.085-1.146.255s-.705.339-.97.593c-.264.255-.44.594-.617.934a2.53 2.53 0 0 0 -.264 1.102c0 .34.088.764.264 1.188.176.34.353.679.617.933.265.255.617.424.97.594s.794.255 1.146.255c.353-.17.794-.17 1.146-.34zm7.495-7.38v1.442c.44-.933 1.322-1.442 2.557-1.442.352 0 .705 0 .97.085l.793.254-.882 2.036-.529-.254c-.176-.085-.44-.085-.793-.085-.705 0-1.146.17-1.499.509-.353.34-.529.933-.529 1.781v5.005h-2.292v-9.416h2.204zm6.348 0v-1.442l2.292-1.527v2.969h2.028v1.95h-2.027v3.564c0 .424 0 .763.089 1.018.088.254.176.424.264.594s.353.254.617.254c.265 0 .617.085 1.058.085v2.036h-.44c-.794 0-1.411-.085-1.94-.17-.53-.17-.882-.339-1.235-.678-.264-.34-.529-.679-.617-1.188a10.406 10.406 0 0 1 -.176-1.866v-3.563h-1.675v-1.951l1.763-.085zm7.583 0v1.187c.352-.424.705-.763 1.234-1.018.529-.254 1.058-.339 1.675-.339 1.234 0 2.204.34 2.821 1.018.618.679 1.059 1.697 1.059 2.97v5.598h-2.293v-5.344c0-.764-.176-1.273-.529-1.697s-.882-.679-1.675-.679c-.617 0-1.234.255-1.675.68-.441.423-.706 1.102-.706 1.865v5.175h-2.291v-9.416zm10.844 9.247c-.617-.255-1.146-.594-1.675-1.018a4.806 4.806 0 0 1 -1.058-1.527c-.264-.594-.353-1.273-.353-1.867 0-.678.089-1.357.353-1.95a4.806 4.806 0 0 1 1.058-1.528 5.02 5.02 0 0 1 1.587-1.018 5.405 5.405 0 0 1 2.028-.424c.705 0 1.41.085 2.028.34a5.02 5.02 0 0 1 1.587 1.017c.44.424.793.933 1.058 1.527.264.594.353 1.273.353 1.951v.849h-7.936c.177.678.53 1.187 1.058 1.612.53.424 1.235.593 2.028.593.617 0 1.235-.17 1.676-.424.44-.254.793-.678 1.058-1.187l1.851 1.018c-.44.763-1.058 1.357-1.763 1.866-.706.509-1.675.679-2.822.679-.793-.17-1.499-.255-2.116-.51zm.265-7.042c-.53.34-.882.849-1.058 1.443h5.554c-.176-.68-.529-1.103-.97-1.443-.44-.339-1.058-.509-1.763-.509s-1.234.17-1.763.51zm10.051-2.205v1.442c.44-.933 1.323-1.442 2.557-1.442.353 0 .705 0 .97.085l.793.254-.881 2.036-.53-.254c-.176-.085-.44-.085-.793-.085-.705 0-1.146.17-1.499.509-.352.34-.529.933-.529 1.781v5.005h-2.292v-9.416h2.204z"/></g><g fill="#000" fill-rule="nonzero"><path d="m113.4 130.288c1.068 0 1.958.17 2.759.426.8.34 1.513.68 2.047 1.275.534.51.979 1.191 1.246 1.871s.445 1.531.445 2.382c0 .85-.178 1.616-.445 2.381-.267.766-.801 1.361-1.335 1.872a5.33 5.33 0 0 1 -2.047 1.19c-.801.34-1.691.425-2.581.425h-3.471v-11.822zm-1.068 9.781h.89c.712 0 1.246-.085 1.869-.255s.979-.51 1.424-.85c.356-.34.712-.766.89-1.191s.356-.936.356-1.531-.09-1.106-.267-1.531a3.553 3.553 0 0 0 -.801-1.19c-.356-.34-.801-.596-1.424-.766a7.243 7.243 0 0 0 -1.958-.255h-.801l-.178 7.57zm11.392 1.871c-.623-.255-1.157-.595-1.691-1.02a4.818 4.818 0 0 1 -1.068-1.531c-.267-.596-.356-1.19-.356-1.871 0-.68.089-1.361.356-1.956a4.818 4.818 0 0 1 1.068-1.531 5.072 5.072 0 0 1 1.602-1.021 5.488 5.488 0 0 1 2.047-.425c.712 0 1.424.085 2.047.34a5.072 5.072 0 0 1 1.602 1.02c.445.426.801.936 1.068 1.531.267.596.356 1.276.356 1.957v.85h-8.01c.178.68.534 1.19 1.068 1.616.534.425 1.246.596 2.047.596.623 0 1.246-.17 1.691-.426.445-.255.801-.68 1.068-1.19l1.87 1.02c-.446.766-1.069 1.361-1.78 1.871-.713.51-1.692.68-2.849.68-.801-.17-1.513-.254-2.136-.51zm.267-6.974c-.534.34-.89.85-1.068 1.361h5.607c-.178-.68-.534-1.106-.979-1.446s-1.068-.51-1.78-.51-1.335.17-1.78.595zm8.9 6.719a4.547 4.547 0 0 1 -1.69-1.7l2.135-.936c.267.425.534.765.98 1.02.444.255.89.34 1.423.34.534 0 .98-.085 1.246-.34.267-.255.445-.51.445-.765 0-.17-.089-.34-.178-.425-.089-.086-.267-.17-.534-.256-.267-.085-.445-.17-.712-.17-.267-.085-.534-.085-.89-.17a6.792 6.792 0 0 1 -1.246-.34c-.445-.085-.8-.255-1.068-.51-.267-.255-.623-.51-.8-.766-.179-.34-.268-.765-.268-1.19 0-.34.09-.766.267-1.106.178-.34.445-.68.801-.936.356-.255.712-.51 1.246-.68.445-.17.98-.255 1.602-.255.98 0 1.78.17 2.492.51.623.34 1.157.85 1.602 1.446l-1.958.935a1.71 1.71 0 0 0 -.8-.765c-.357-.17-.802-.255-1.247-.255-.534 0-.979.085-1.246.34-.267.17-.356.425-.356.68 0 .34.178.51.534.68s.98.256 1.691.426c.445.085.801.17 1.246.34.445.085.801.255 1.157.51.356.17.623.51.801.766.178.255.356.766.356 1.19 0 .341-.089.681-.267 1.021s-.356.68-.712 1.021c-.356.34-.8.595-1.246.765-.534.17-1.068.256-1.869.256-1.335-.085-2.225-.256-2.937-.68zm7.832-12.332c.267-.255.623-.34 1.068-.34s.801.085 1.068.34.356.595.356 1.02c0 .426-.089.766-.356 1.021s-.623.34-1.068.34-.8-.085-1.068-.34c-.267-.255-.356-.595-.356-1.02 0-.426.09-.766.356-1.021zm2.225 3.317v9.44h-2.314v-9.44zm7.655 9.27a4.294 4.294 0 0 1 -1.87.426 4.414 4.414 0 0 1 -1.78-.34c-.534-.256-1.068-.51-1.602-.936a4.818 4.818 0 0 1 -1.068-1.531 4.945 4.945 0 0 1 -.445-2.041c0-.766.178-1.531.445-2.127a4.818 4.818 0 0 1 1.068-1.53c.445-.426.98-.766 1.603-.936a4.71 4.71 0 0 1 1.78-.34c.623 0 1.246.085 1.78.34s.979.595 1.335 1.02v-1.19h2.314v9.1c0 .68-.09 1.276-.356 1.871-.267.596-.534 1.106-.98 1.531a5.072 5.072 0 0 1 -1.601 1.021c-.623.255-1.335.34-2.225.34-.623 0-1.246-.085-1.78-.17-.535-.085-.98-.34-1.425-.595s-.8-.51-1.068-.85c-.356-.341-.623-.681-.8-1.106l2.046-1.191c.356.68.801 1.106 1.247 1.446.445.34 1.068.51 1.869.51.445 0 .8-.085 1.157-.255.356-.17.623-.34.89-.595.267-.256.445-.51.534-.851.089-.34.178-.68.178-1.02v-1.106c-.178.51-.623.85-1.246 1.105zm-.267-1.87c.356-.17.712-.34.89-.596.178-.255.445-.595.623-.936.178-.34.267-.765.267-1.19a2.27 2.27 0 0 0 -.267-1.106c-.178-.34-.356-.68-.623-.936-.267-.255-.534-.51-.89-.595a2.847 2.847 0 0 0 -1.157-.255c-.445 0-.801.085-1.157.255s-.712.34-.98.595c-.267.256-.445.596-.623.936s-.267.765-.267 1.19c0 .426.09.766.267 1.191.178.34.356.68.624.936.267.255.623.51.979.595s.8.255 1.157.255c.445-.085.8-.17 1.157-.34zm7.654-7.4v1.19c.356-.425.712-.765 1.246-1.02s1.068-.34 1.69-.34c1.247 0 2.226.34 2.849 1.02s1.068 1.701 1.068 2.977v5.613h-2.314v-5.358c0-.765-.178-1.276-.534-1.7-.356-.426-.89-.681-1.691-.681-.623 0-1.246.255-1.691.68s-.712 1.106-.712 1.871v5.188h-2.314v-9.44zm13.706 9.015a6.948 6.948 0 0 1 -1.958-1.53l2.136-1.617c.356.51.712.936 1.157 1.191s.98.425 1.513.425c.623 0 1.068-.17 1.424-.51s.445-.68.445-1.106c0-.255-.089-.425-.178-.595-.178-.17-.356-.34-.534-.425-.267-.085-.534-.255-.8-.34-.268-.086-.624-.17-.98-.256-.445-.085-.8-.255-1.246-.425-.445-.17-.8-.34-1.157-.595a2.687 2.687 0 0 1 -.801-.936c-.178-.34-.356-.85-.356-1.36 0-.511.089-.936.267-1.361.178-.426.534-.766.89-1.106s.801-.51 1.335-.766a5.253 5.253 0 0 1 1.602-.255c.534 0 .98.085 1.335.085.356.085.801.17 1.068.34s.623.34.89.51.534.426.801.681l-1.869 1.361c-.534-.765-1.246-1.106-2.225-1.106-.534 0-.979.085-1.246.426-.267.255-.445.595-.445.935 0 .255.09.425.178.596.09.17.356.34.534.425.267.085.534.255.801.34l.98.34c.444.085.8.255 1.245.425s.801.34 1.157.68c.356.341.623.596.801.936s.356.851.356 1.446a3.553 3.553 0 0 1 -1.068 2.552c-.356.34-.8.595-1.335.85-.534.256-1.157.34-1.78.34-1.246 0-2.136-.17-2.937-.595zm11.214.255a5.072 5.072 0 0 1 -1.602-1.02 4.818 4.818 0 0 1 -1.068-1.531c-.267-.596-.356-1.19-.356-1.871 0-.68.09-1.361.356-1.956a4.818 4.818 0 0 1 1.068-1.531 5.072 5.072 0 0 1 1.602-1.021c.623-.255 1.335-.34 1.958-.34s1.335.085 1.958.34a5.072 5.072 0 0 1 1.602 1.02c.445.426.801.936 1.068 1.532.267.595.445 1.275.445 1.956 0 .68-.089 1.36-.445 1.87-.356.511-.623 1.107-1.068 1.532a5.072 5.072 0 0 1 -1.602 1.02c-.623.256-1.246.34-1.958.34s-1.335-.084-1.958-.34zm3.115-1.87c.356-.17.623-.34.89-.596.267-.255.445-.595.623-.936.178-.34.178-.68.178-1.105 0-.426-.089-.766-.178-1.106-.178-.34-.356-.68-.623-.936a3.202 3.202 0 0 0 -.89-.595 2.558 2.558 0 0 0 -1.157-.255c-.445 0-.8.085-1.157.255-.356.17-.623.34-.89.595-.267.256-.445.596-.623.936s-.178.765-.178 1.106c0 .425.09.765.178 1.105.09.34.356.68.623.936.267.255.534.425.89.595s.712.255 1.157.255c.445-.085.801-.17 1.157-.255zm7.299-9.952v11.992h-2.315v-11.992zm7.921 11.992v-1.105c-.356.425-.712.68-1.157.935-.445.256-.98.34-1.691.34-1.157 0-2.136-.34-2.76-1.02-.711-.68-.978-1.701-.978-2.977v-5.613h2.314v5.358c0 .765.178 1.276.534 1.701s.89.68 1.602.68c.623 0 1.157-.255 1.602-.68s.623-1.106.623-1.871v-5.188h2.314v9.44zm4.984-9.44v-1.446l2.314-1.531v2.977h2.047v1.956h-2.047v3.572c0 .425 0 .766.089 1.02.089.256.178.426.267.596s.356.255.623.255c.267.085.623.085 1.068.085v2.042h-.356c-.801 0-1.424-.086-1.958-.17-.534-.086-.89-.34-1.246-.681-.356-.34-.534-.68-.623-1.19a10.364 10.364 0 0 1 -.178-1.872v-3.572h-1.691v-1.956h1.69v-.085zm5.518-3.317c.267-.255.623-.34 1.068-.34s.801.085 1.068.34.356.595.356 1.02c0 .426-.089.766-.356 1.021s-.623.34-1.068.34-.801-.085-1.068-.34-.356-.595-.356-1.02c0-.426.089-.766.356-1.021zm2.136 3.317v9.44h-2.314v-9.44zm4.094 9.27a5.072 5.072 0 0 1 -1.602-1.02 4.818 4.818 0 0 1 -1.068-1.531c-.267-.596-.445-1.19-.445-1.871 0-.68.089-1.361.445-1.956a4.818 4.818 0 0 1 1.068-1.531 5.072 5.072 0 0 1 1.602-1.021c.623-.255 1.335-.34 1.958-.34s1.335.085 1.958.34a5.072 5.072 0 0 1 1.602 1.02c.445.426.801.936 1.068 1.532.267.595.445 1.275.445 1.956 0 .68-.089 1.36-.445 1.87-.356.511-.623 1.107-1.068 1.532a5.072 5.072 0 0 1 -1.602 1.02c-.623.256-1.246.34-1.958.34a5.283 5.283 0 0 1 -1.958-.34zm3.204-1.87c.356-.17.623-.34.89-.596.267-.255.445-.595.623-.936.178-.34.178-.68.178-1.105 0-.426-.089-.766-.178-1.106-.178-.34-.356-.68-.623-.936a3.202 3.202 0 0 0 -.89-.595 2.558 2.558 0 0 0 -1.157-.255c-.445 0-.8.085-1.157.255-.356.17-.623.34-.89.595-.267.256-.445.596-.623.936s-.178.765-.178 1.106c0 .425.09.765.178 1.105.09.34.356.68.623.936.267.255.534.425.89.595s.712.255 1.157.255c.445-.085.801-.17 1.157-.255zm7.209-7.4v1.19c.356-.425.712-.765 1.246-1.02s1.068-.34 1.691-.34c1.246 0 2.225.34 2.848 1.02s1.068 1.701 1.068 2.977v5.613h-2.314v-5.358c0-.765-.178-1.276-.534-1.7-.356-.426-.89-.681-1.69-.681-.624 0-1.247.255-1.692.68s-.712 1.106-.712 1.871v5.188h-2.314v-9.44z"/><path d="m177.303 149.85c.623 0 1.246.085 1.78.34.534.256.98.51 1.424.936.445.425.712.85.89 1.36.178.511.356 1.021.356 1.617 0 .595-.089 1.105-.356 1.616-.267.51-.534.935-.89 1.36-.356.426-.89.681-1.424.936s-1.157.34-1.78.34h-1.869v3.402h-2.314v-11.907zm-1.958 6.38h1.78c.356 0 .623-.086.89-.171a1.38 1.38 0 0 0 .712-.51c.178-.17.356-.426.445-.68.09-.256.178-.511.178-.851s-.089-.596-.178-.85a1.842 1.842 0 0 0 -.445-.681 1.953 1.953 0 0 0 -.712-.425c-.267-.086-.623-.17-.89-.17h-1.78v4.337zm9.879 5.272c-.534-.255-1.068-.51-1.602-.935a4.818 4.818 0 0 1 -1.068-1.531 4.945 4.945 0 0 1 -.445-2.041c0-.766.178-1.531.445-2.127a4.818 4.818 0 0 1 1.068-1.53c.445-.426.98-.766 1.602-.936a4.71 4.71 0 0 1 1.78-.34c.623 0 1.246.085 1.78.34s.98.595 1.335.935v-1.105h2.315v9.44h-2.315v-1.19a3.529 3.529 0 0 1 -1.424 1.02c-.534.255-1.157.34-1.78.34a4.293 4.293 0 0 1 -1.69-.34zm3.382-1.87c.356-.171.712-.341.89-.596s.445-.596.623-.936.267-.765.267-1.19a2.27 2.27 0 0 0 -.267-1.106c-.178-.34-.356-.68-.623-.936-.267-.255-.534-.51-.89-.595a2.847 2.847 0 0 0 -1.157-.255c-.445 0-.8.085-1.157.255-.356.17-.712.34-.979.595s-.445.596-.623.936-.267.765-.267 1.19c0 .426.09.766.267 1.191.178.34.356.68.623.936.267.255.623.51.98.595.355.085.8.255 1.156.255.356-.085.801-.17 1.157-.34zm7.566-7.4v1.36c.445-.935 1.335-1.36 2.58-1.36.357 0 .713 0 .98.085l.8.255-.89 2.041-.533-.255c-.178-.085-.445-.085-.801-.085-.712 0-1.157.17-1.513.51s-.534.936-.534 1.786v5.018h-2.314v-9.355zm6.318 0v-1.446l2.315-1.531v2.977h2.047v1.956h-2.047v3.572c0 .425 0 .765.089 1.02.089.256.178.426.267.596s.356.255.623.255c.267.085.623.085 1.068.085v2.041h-.356c-.801 0-1.424-.085-1.958-.17s-.89-.34-1.246-.68-.534-.68-.623-1.19a10.364 10.364 0 0 1 -.178-1.872v-3.572h-1.691v-1.956h1.69zm7.744 0v1.19c.356-.425.712-.765 1.246-1.02s1.068-.34 1.691-.34c1.246 0 2.225.34 2.848 1.02s1.068 1.701 1.068 2.977v5.613h-2.314v-5.358c0-.765-.178-1.276-.534-1.7-.356-.426-.89-.681-1.691-.681-.623 0-1.246.255-1.691.68s-.712 1.106-.712 1.871v5.188h-2.314v-9.44zm10.947 9.27c-.623-.255-1.157-.595-1.69-1.02a4.818 4.818 0 0 1 -1.069-1.531c-.267-.596-.356-1.191-.356-1.871s.09-1.361.445-1.957a4.818 4.818 0 0 1 1.068-1.53 5.072 5.072 0 0 1 1.602-1.021 5.488 5.488 0 0 1 2.047-.425c.712 0 1.424.085 2.047.34a5.072 5.072 0 0 1 1.602 1.02c.445.426.801.936 1.068 1.531.267.596.356 1.276.356 1.957v.85h-8.01c.178.68.534 1.19 1.068 1.616.534.425 1.246.595 2.047.595.623 0 1.246-.17 1.691-.425s.801-.68 1.068-1.19l1.87 1.02c-.446.765-1.069 1.36-1.78 1.871-.713.51-1.692.68-2.849.68-.89-.17-1.602-.255-2.225-.51zm.267-6.974c-.534.34-.89.85-1.068 1.36h5.607c-.178-.68-.534-1.105-.979-1.445s-1.068-.51-1.78-.51-1.246.17-1.78.595zm10.146-2.296v1.36c.445-.935 1.335-1.36 2.581-1.36.356 0 .712 0 .98.085l.8.255-.89 2.041-.534-.255c-.178-.085-.445-.085-.8-.085-.713 0-1.158.17-1.514.51s-.534.936-.534 1.786v5.018h-2.314v-9.355z"/></g><path d="m367.288 648.091v10.922h-2.396v-10.923zm5.99 0c.645 0 1.29.079 1.843.314a8.275 8.275 0 0 1 1.474.786c.461.314.737.786.922 1.257.184.472.368.943.368 1.493s-.092 1.022-.368 1.493a6.728 6.728 0 0 1 -.922 1.257c-.368.393-.921.629-1.474.786-.553.236-1.198.314-1.843.314h-1.936v3.143h-2.396v-10.921h4.332zm-2.028 5.893h1.843c.369 0 .645-.079.922-.157.276-.079.553-.236.737-.393s.369-.393.46-.629c.093-.235.185-.471.185-.785 0-.315-.092-.55-.184-.786a1.699 1.699 0 0 0 -.46-.629 2.082 2.082 0 0 0 -.738-.392c-.277-.079-.645-.158-.922-.158h-1.843z" fill="#000" fill-rule="nonzero"/></g></svg>